<svg viewBox="0 0 990.6000366210938 400" xmlns="http://www.w3.org/2000/svg"><g><g><g><g><g><line x1="40" y1="378" x2="35" y2="378" style="visibility: inherit;" fill="rgb(0, 0, 0)" stroke="rgb(204, 204, 204)" stroke-width="1px"></line><line x1="40" y1="324" x2="35" y2="324" style="visibility: inherit;" fill="rgb(0, 0, 0)" stroke="rgb(204, 204, 204)" stroke-width="1px"></line><line x1="40" y1="270" x2="35" y2="270" style="visibility: inherit;" fill="rgb(0, 0, 0)" stroke="rgb(204, 204, 204)" stroke-width="1px"></line><line x1="40" y1="216" x2="35" y2="216" style="visibility: inherit;" fill="rgb(0, 0, 0)" stroke="rgb(204, 204, 204)" stroke-width="1px"></line><line x1="40" y1="162" x2="35" y2="162" style="visibility: inherit;" fill="rgb(0, 0, 0)" stroke="rgb(204, 204, 204)" stroke-width="1px"></line><line x1="40" y1="108" x2="35" y2="108" style="visibility: inherit;" fill="rgb(0, 0, 0)" stroke="rgb(204, 204, 204)" stroke-width="1px"></line><line x1="40" y1="54.00000000000002" x2="35" y2="54.00000000000002" style="visibility: inherit;" fill="rgb(0, 0, 0)" stroke="rgb(204, 204, 204)" stroke-width="1px"></line><line x1="40" y1="0" x2="35" y2="0" style="visibility: inherit;" fill="rgb(0, 0, 0)" stroke="rgb(204, 204, 204)" stroke-width="1px"></line></g><g transform="translate(30, 0)"><text x="0" y="378" dx="0em" dy="0.3em" style="text-anchor: end; visibility: hidden; font-family: Roboto, sans-serif; font-size: 12px; font-weight: 200;" fill="rgb(50, 49, 63)" stroke="none" stroke-width="1px">2</text><text x="0" y="324" dx="0em" dy="0.3em" style="text-anchor: end; visibility: inherit; font-family: Roboto, sans-serif; font-size: 12px; font-weight: 200;" fill="rgb(50, 49, 63)" stroke="none" stroke-width="1px">2.5</text><text x="0" y="270" dx="0em" dy="0.3em" style="text-anchor: end; visibility: inherit; font-family: Roboto, sans-serif; font-size: 12px; font-weight: 200;" fill="rgb(50, 49, 63)" stroke="none" stroke-width="1px">3</text><text x="0" y="216" dx="0em" dy="0.3em" style="text-anchor: end; visibility: inherit; font-family: Roboto, sans-serif; font-size: 12px; font-weight: 200;" fill="rgb(50, 49, 63)" stroke="none" stroke-width="1px">3.5</text><text x="0" y="162" dx="0em" dy="0.3em" style="text-anchor: end; visibility: inherit; font-family: Roboto, sans-serif; font-size: 12px; font-weight: 200;" fill="rgb(50, 49, 63)" stroke="none" stroke-width="1px">4</text><text x="0" y="108" dx="0em" dy="0.3em" style="text-anchor: end; visibility: inherit; font-family: Roboto, sans-serif; font-size: 12px; font-weight: 200;" fill="rgb(50, 49, 63)" stroke="none" stroke-width="1px">4.5</text><text x="0" y="54.00000000000002" dx="0em" dy="0.3em" style="text-anchor: end; visibility: inherit; font-family: Roboto, sans-serif; font-size: 12px; font-weight: 200;" fill="rgb(50, 49, 63)" stroke="none" stroke-width="1px">5</text><text x="0" y="0" dx="0em" dy="0.3em" style="text-anchor: end; visibility: hidden; font-family: Roboto, sans-serif; font-size: 12px; font-weight: 200;" fill="rgb(50, 49, 63)" stroke="none" stroke-width="1px">5.5</text></g><line x1="40" y1="0" x2="40" y2="378" fill="rgb(0, 0, 0)" stroke="rgb(204, 204, 204)" stroke-width="1px"></line></g></g><g transform="translate(40, 0)" clip-path="url(#clip_0)"><clipPath id="clip_0"><rect width="950" height="378"></rect></clipPath><g><g><g><line x1="0" y1="0" x2="0" y2="378" fill="rgb(0, 0, 0)" stroke="rgb(60, 60, 60)" stroke-width="1px" opacity="0.25"></line><line x1="79.21666666666667" y1="0" x2="79.21666666666667" y2="378" fill="rgb(0, 0, 0)" stroke="rgb(60, 60, 60)" stroke-width="1px" opacity="0.25"></line><line x1="158.43333333333334" y1="0" x2="158.43333333333334" y2="378" fill="rgb(0, 0, 0)" stroke="rgb(60, 60, 60)" stroke-width="1px" opacity="0.25"></line><line x1="237.65" y1="0" x2="237.65" y2="378" fill="rgb(0, 0, 0)" stroke="rgb(60, 60, 60)" stroke-width="1px" opacity="0.25"></line><line x1="316.8666666666667" y1="0" x2="316.8666666666667" y2="378" fill="rgb(0, 0, 0)" stroke="rgb(60, 60, 60)" stroke-width="1px" opacity="0.25"></line><line x1="396.08333333333337" y1="0" x2="396.08333333333337" y2="378" fill="rgb(0, 0, 0)" stroke="rgb(60, 60, 60)" stroke-width="1px" opacity="0.25"></line><line x1="475.3" y1="0" x2="475.3" y2="378" fill="rgb(0, 0, 0)" stroke="rgb(60, 60, 60)" stroke-width="1px" opacity="0.25"></line><line x1="554.5166666666668" y1="0" x2="554.5166666666668" y2="378" fill="rgb(0, 0, 0)" stroke="rgb(60, 60, 60)" stroke-width="1px" opacity="0.25"></line><line x1="633.7333333333333" y1="0" x2="633.7333333333333" y2="378" fill="rgb(0, 0, 0)" stroke="rgb(60, 60, 60)" stroke-width="1px" opacity="0.25"></line><line x1="712.95" y1="0" x2="712.95" y2="378" fill="rgb(0, 0, 0)" stroke="rgb(60, 60, 60)" stroke-width="1px" opacity="0.25"></line><line x1="792.1666666666667" y1="0" x2="792.1666666666667" y2="378" fill="rgb(0, 0, 0)" stroke="rgb(60, 60, 60)" stroke-width="1px" opacity="0.25"></line><line x1="871.3833333333333" y1="0" x2="871.3833333333333" y2="378" fill="rgb(0, 0, 0)" stroke="rgb(60, 60, 60)" stroke-width="1px" opacity="0.25"></line><line x1="950.6" y1="0" x2="950.6" y2="378" fill="rgb(0, 0, 0)" stroke="rgb(60, 60, 60)" stroke-width="1px" opacity="0.25"></line></g><g><line x1="0" y1="378" x2="950.6" y2="378" fill="rgb(0, 0, 0)" stroke="rgb(60, 60, 60)" stroke-width="1px" opacity="0.25"></line><line x1="0" y1="324" x2="950.6" y2="324" fill="rgb(0, 0, 0)" stroke="rgb(60, 60, 60)" stroke-width="1px" opacity="0.25"></line><line x1="0" y1="270" x2="950.6" y2="270" fill="rgb(0, 0, 0)" stroke="rgb(60, 60, 60)" stroke-width="1px" opacity="0.25"></line><line x1="0" y1="216" x2="950.6" y2="216" fill="rgb(0, 0, 0)" stroke="rgb(60, 60, 60)" stroke-width="1px" opacity="0.25"></line><line x1="0" y1="162" x2="950.6" y2="162" fill="rgb(0, 0, 0)" stroke="rgb(60, 60, 60)" stroke-width="1px" opacity="0.25"></line><line x1="0" y1="108" x2="950.6" y2="108" fill="rgb(0, 0, 0)" stroke="rgb(60, 60, 60)" stroke-width="1px" opacity="0.25"></line><line x1="0" y1="54.00000000000002" x2="950.6" y2="54.00000000000002" fill="rgb(0, 0, 0)" stroke="rgb(60, 60, 60)" stroke-width="1px" opacity="0.25"></line><line x1="0" y1="0" x2="950.6" y2="0" fill="rgb(0, 0, 0)" stroke="rgb(60, 60, 60)" stroke-width="1px" opacity="0.25"></line></g></g></g><g><g><line x1="0" y1="594" x2="950.6" y2="594" fill="rgb(0, 0, 0)" stroke="rgb(153, 153, 153)" stroke-width="1.5px"></line></g></g><g><g><line x1="79.21666666666667" y1="0" x2="79.21666666666667" y2="378" fill="rgb(0, 0, 0)" stroke="rgb(153, 153, 153)" stroke-width="1.5px"></line></g></g><g><g><g><g><g><path stroke="rgb(0, 119, 187)" stroke-width="2px" d="M79.21666666666667,285.1980829238892L95.06,245.14412999153137L110.90333333333334,239.80602060045518L126.74666666666667,226.9450594046537L142.59,-169.23127589996776L158.43333333333334,30.449738129893326L174.27666666666667,-94.73930927363917L190.12,48.81499291399953L205.96333333333334,147.75225681785147L221.80666666666667,198.32022042574758L237.65,246.3996547636076L253.49333333333334,260.7764147786759L269.33666666666664,248.94911145761927L285.18,278.3152546757864L301.0233333333333,293.70763808938716L316.8666666666667,298.6080713377775L332.71,305.12315384044734L348.55333333333334,299.9403627053621L364.3966666666667,300.6110636840747L380.24,302.6316592149147L396.08333333333337,306.667689184937L411.9266666666667,308.9444659575341L427.77000000000004,295.1099254978063L443.61333333333334,295.3018425911167L459.4566666666667,259.96369475404595L475.3,258.03783041906155L491.1433333333334,253.63588153600162L506.9866666666667,258.16401957156705L522.83,249.76987700333504L538.6733333333333,243.84646697622983L554.5166666666668,257.7436295571942L570.36,248.22840315806212L586.2033333333334,249.0541798432053L602.0466666666666,257.2542206347605L617.89,239.2340189637764L633.7333333333333,247.31271103739857L649.5766666666667,212.59288153452323L665.42,205.82975309604055L681.2633333333333,224.27412829642194L697.1066666666667,200.1592622544555L712.95,216.32237125418678L728.7933333333334,224.0191525078029L744.6366666666667,230.94779025851332L760.48,220.07802435769258L776.3233333333334,226.58335788921758L792.1666666666667,226.23986496849446L808.01,232.1595363519237L823.8533333333334,244.22645759023374L839.6966666666667,240.08291701929443L855.5400000000001,236.82244193823485" style="fill: none;" fill="none"></path></g><g><path stroke="rgb(255, 112, 67)" stroke-width="2px" d="M79.21666666666667,244.6055660247803L95.06,286.61576664447784L110.90333333333334,307.3088882212736L126.74666666666667,298.65456913148654L142.59,292.758060114488L158.43333333333334,291.86596927120394L174.27666666666667,294.5303162036482L190.12,294.92207351260396L205.96333333333334,297.412000392682L221.80666666666667,297.0388058228547L237.65,296.8335292807534L253.49333333333334,297.25822473148884L269.33666666666664,291.13889050070804L285.18,290.11934908127574L301.0233333333333,288.64827449155285L316.8666666666667,279.0976286138693L332.71,265.4263806517069L348.55333333333334,258.8269999703419L364.3966666666667,247.17988585332736L380.24,235.77956746318594L396.08333333333337,224.48681762429374L411.9266666666667,210.21898102595026L427.77000000000004,200.92004007831505L443.61333333333334,192.6087805482507L459.4566666666667,179.09402247812545L475.3,159.17736873999803L491.1433333333334,147.76726695722692L506.9866666666667,132.80441989442957L522.83,124.30497317631902L538.6733333333333,117.59935968165594L554.5166666666668,107.83253855522791L570.36,100.92461871372991L586.2033333333334,88.76739348095852L602.0466666666666,87.32010630467705L617.89,83.76794567974996L633.7333333333333,77.98677137654077L649.5766666666667,79.72603958229372L665.42,71.12802636637589L681.2633333333333,72.3128753927778L697.1066666666667,72.33389146494277L712.95,65.03990625373088L728.7933333333334,73.87359967079617L744.6366666666667,77.06213358879867L760.48,75.60167529462777L776.3233333333334,82.17491356369038L792.1666666666667,88.93476915304011L808.01,94.91657896030962L823.8533333333334,102.82555772792577L839.6966666666667,106.04692155086144L855.5400000000001,116.14250611053004" style="fill: none;" fill="none"></path></g></g></g></g><g opacity="0.2"><g><g><g><path stroke="rgb(0, 119, 187)" stroke-width="2px" d="M79.21666666666667,285.19808292388916L95.06,221.1117582321167L110.90333333333334,234.68143558502197L126.74666666666667,211.8205690383911L142.59,-686.4790992736818L158.43333333333334,306.6804656982422L174.27666666666667,-273.7616500854492L190.12,258.11854362487793L205.96333333333334,293.6655035018921L221.80666666666667,273.40775299072266L237.65,318.0827293395996L253.49333333333334,282.2633171081543L269.33666666666664,231.2467746734619L285.18,322.3069381713867L301.0233333333333,316.77812004089355L316.8666666666667,305.955265045166L332.71,314.8930206298828L348.55333333333334,292.1674919128418L364.3966666666667,301.6170129776001L380.24,305.66236782073975L396.08333333333337,312.72151279449463L411.9266666666667,312.3595561981201L427.77000000000004,274.3583879470825L443.61333333333334,295.5897159576416L459.4566666666667,206.95672416687012L475.3,255.1490421295166L491.1433333333334,247.03296947479245L506.9866666666667,264.95621967315674L522.83,237.1786708831787L538.6733333333333,234.9613552093506L554.5166666666668,278.58936882019043L570.36,233.95556545257568L586.2033333333334,250.29284477233887L602.0466666666666,269.5542812347412L617.89,212.2037172317505L633.7333333333333,259.43074893951416L649.5766666666667,160.5131378173828L665.42,195.68506050109866L681.2633333333333,251.9406909942627L697.1066666666667,163.98696327209475L712.95,240.5670347213745L728.7933333333334,235.5643243789673L744.6366666666667,241.34074687957764L760.48,203.77337551116943L776.3233333333334,236.34135818481448L792.1666666666667,225.72462558746338L808.01,241.03904342651367L823.8533333333334,262.3268394470215L839.6966666666667,233.8676061630249L855.5400000000001,231.9317293167114" style="fill: none;" fill="none"></path></g><g><path stroke="rgb(255, 112, 67)" stroke-width="2px" d="M79.21666666666667,244.6055660247803L95.06,311.8218870162964L110.90333333333334,327.17428493499756L126.74666666666667,288.477089881897L142.59,285.05957794189453L158.43333333333334,290.63188648223877L174.27666666666667,298.34037494659424L190.12,295.49325942993164L205.96333333333334,301.0841588973999L221.80666666666667,296.484655380249L237.65,296.52747631073L253.49333333333334,297.8929567337036L269.33666666666664,281.9798698425293L285.18,288.5920343399048L301.0233333333333,286.44339179992676L316.8666666666667,264.778395652771L332.71,244.92529392242432L348.55333333333334,248.92960453033447L364.3966666666667,229.7109889984131L380.24,218.68013191223145L396.08333333333337,207.54831218719482L411.9266666666667,188.81769561767578L427.77000000000004,186.97181224822998L443.61333333333334,180.14198970794678L459.4566666666667,158.8219814300537L475.3,129.30247306823728L491.1433333333334,130.65214347839353L506.9866666666667,110.3601722717285L522.83,111.55581092834473L538.6733333333333,107.54094314575197L554.5166666666668,93.18231010437013L570.36,90.56274032592773L586.2033333333334,70.53155708312987L602.0466666666666,85.14917564392091L617.89,78.43970489501955L633.7333333333333,69.3150100708008L649.5766666666667,82.33494186401367L665.42,58.23100662231443L681.2633333333333,74.09014892578125L697.1066666666667,72.3654155731201L712.95,54.098928451538086L728.7933333333334,87.12413978576659L744.6366666666667,81.84493446350099L760.48,73.4109878540039L776.3233333333334,92.03477096557616L792.1666666666667,99.07455253601074L808.01,103.8892936706543L823.8533333333334,114.68902587890626L839.6966666666667,110.87896728515624L855.5400000000001,131.28588294982907" style="fill: none;" fill="none"></path></g></g></g></g></g></g><g transform="translate(40, 378)" clip-path="url(#clip_1)"><clipPath id="clip_1"><rect width="950" height="22"></rect></clipPath><g><g><line x1="0" y1="0" x2="0" y2="5" style="visibility: inherit;" fill="rgb(0, 0, 0)" stroke="rgb(204, 204, 204)" stroke-width="1px"></line><line x1="79.21666666666667" y1="0" x2="79.21666666666667" y2="5" style="visibility: inherit;" fill="rgb(0, 0, 0)" stroke="rgb(204, 204, 204)" stroke-width="1px"></line><line x1="158.43333333333334" y1="0" x2="158.43333333333334" y2="5" style="visibility: inherit;" fill="rgb(0, 0, 0)" stroke="rgb(204, 204, 204)" stroke-width="1px"></line><line x1="237.65" y1="0" x2="237.65" y2="5" style="visibility: inherit;" fill="rgb(0, 0, 0)" stroke="rgb(204, 204, 204)" stroke-width="1px"></line><line x1="316.8666666666667" y1="0" x2="316.8666666666667" y2="5" style="visibility: inherit;" fill="rgb(0, 0, 0)" stroke="rgb(204, 204, 204)" stroke-width="1px"></line><line x1="396.08333333333337" y1="0" x2="396.08333333333337" y2="5" style="visibility: inherit;" fill="rgb(0, 0, 0)" stroke="rgb(204, 204, 204)" stroke-width="1px"></line><line x1="475.3" y1="0" x2="475.3" y2="5" style="visibility: inherit;" fill="rgb(0, 0, 0)" stroke="rgb(204, 204, 204)" stroke-width="1px"></line><line x1="554.5166666666668" y1="0" x2="554.5166666666668" y2="5" style="visibility: inherit;" fill="rgb(0, 0, 0)" stroke="rgb(204, 204, 204)" stroke-width="1px"></line><line x1="633.7333333333333" y1="0" x2="633.7333333333333" y2="5" style="visibility: inherit;" fill="rgb(0, 0, 0)" stroke="rgb(204, 204, 204)" stroke-width="1px"></line><line x1="712.95" y1="0" x2="712.95" y2="5" style="visibility: inherit;" fill="rgb(0, 0, 0)" stroke="rgb(204, 204, 204)" stroke-width="1px"></line><line x1="792.1666666666667" y1="0" x2="792.1666666666667" y2="5" style="visibility: inherit;" fill="rgb(0, 0, 0)" stroke="rgb(204, 204, 204)" stroke-width="1px"></line><line x1="871.3833333333333" y1="0" x2="871.3833333333333" y2="5" style="visibility: inherit;" fill="rgb(0, 0, 0)" stroke="rgb(204, 204, 204)" stroke-width="1px"></line><line x1="950.6" y1="0" x2="950.6" y2="5" style="visibility: inherit;" fill="rgb(0, 0, 0)" stroke="rgb(204, 204, 204)" stroke-width="1px"></line></g><g transform="translate(0, 8)"><text x="0" y="0" dx="0em" dy="0.95em" style="text-anchor: middle; visibility: hidden; font-family: Roboto, sans-serif; font-size: 12px; font-weight: 200;" fill="rgb(50, 49, 63)" stroke="none" stroke-width="1px">-5</text><text x="79.21666666666667" y="0" dx="0em" dy="0.95em" style="text-anchor: middle; visibility: inherit; font-family: Roboto, sans-serif; font-size: 12px; font-weight: 200;" fill="rgb(50, 49, 63)" stroke="none" stroke-width="1px">0</text><text x="158.43333333333334" y="0" dx="0em" dy="0.95em" style="text-anchor: middle; visibility: inherit; font-family: Roboto, sans-serif; font-size: 12px; font-weight: 200;" fill="rgb(50, 49, 63)" stroke="none" stroke-width="1px">5</text><text x="237.65" y="0" dx="0em" dy="0.95em" style="text-anchor: middle; visibility: inherit; font-family: Roboto, sans-serif; font-size: 12px; font-weight: 200;" fill="rgb(50, 49, 63)" stroke="none" stroke-width="1px">10</text><text x="316.8666666666667" y="0" dx="0em" dy="0.95em" style="text-anchor: middle; visibility: inherit; font-family: Roboto, sans-serif; font-size: 12px; font-weight: 200;" fill="rgb(50, 49, 63)" stroke="none" stroke-width="1px">15</text><text x="396.08333333333337" y="0" dx="0em" dy="0.95em" style="text-anchor: middle; visibility: inherit; font-family: Roboto, sans-serif; font-size: 12px; font-weight: 200;" fill="rgb(50, 49, 63)" stroke="none" stroke-width="1px">20</text><text x="475.3" y="0" dx="0em" dy="0.95em" style="text-anchor: middle; visibility: inherit; font-family: Roboto, sans-serif; font-size: 12px; font-weight: 200;" fill="rgb(50, 49, 63)" stroke="none" stroke-width="1px">25</text><text x="554.5166666666668" y="0" dx="0em" dy="0.95em" style="text-anchor: middle; visibility: inherit; font-family: Roboto, sans-serif; font-size: 12px; font-weight: 200;" fill="rgb(50, 49, 63)" stroke="none" stroke-width="1px">30</text><text x="633.7333333333333" y="0" dx="0em" dy="0.95em" style="text-anchor: middle; visibility: inherit; font-family: Roboto, sans-serif; font-size: 12px; font-weight: 200;" fill="rgb(50, 49, 63)" stroke="none" stroke-width="1px">35</text><text x="712.95" y="0" dx="0em" dy="0.95em" style="text-anchor: middle; visibility: inherit; font-family: Roboto, sans-serif; font-size: 12px; font-weight: 200;" fill="rgb(50, 49, 63)" stroke="none" stroke-width="1px">40</text><text x="792.1666666666667" y="0" dx="0em" dy="0.95em" style="text-anchor: middle; visibility: inherit; font-family: Roboto, sans-serif; font-size: 12px; font-weight: 200;" fill="rgb(50, 49, 63)" stroke="none" stroke-width="1px">45</text><text x="871.3833333333333" y="0" dx="0em" dy="0.95em" style="text-anchor: middle; visibility: inherit; font-family: Roboto, sans-serif; font-size: 12px; font-weight: 200;" fill="rgb(50, 49, 63)" stroke="none" stroke-width="1px">50</text><text x="950.6" y="0" dx="0em" dy="0.95em" style="text-anchor: middle; visibility: hidden; font-family: Roboto, sans-serif; font-size: 12px; font-weight: 200;" fill="rgb(50, 49, 63)" stroke="none" stroke-width="1px">55</text></g><line x1="0" y1="0" x2="950.6" y2="0" fill="rgb(0, 0, 0)" stroke="rgb(204, 204, 204)" stroke-width="1px"></line></g></g></g></g></svg>