<svg viewBox="0 0 990.6000366210938 400" xmlns="http://www.w3.org/2000/svg"><g><g><g><g><g><line x1="50" y1="346.5" x2="45" y2="346.5" style="visibility: inherit;" fill="rgb(0, 0, 0)" stroke="rgb(204, 204, 204)" stroke-width="1px"></line><line x1="50" y1="315" x2="45" y2="315" style="visibility: inherit;" fill="rgb(0, 0, 0)" stroke="rgb(204, 204, 204)" stroke-width="1px"></line><line x1="50" y1="283.5" x2="45" y2="283.5" style="visibility: inherit;" fill="rgb(0, 0, 0)" stroke="rgb(204, 204, 204)" stroke-width="1px"></line><line x1="50" y1="252.00000000000003" x2="45" y2="252.00000000000003" style="visibility: inherit;" fill="rgb(0, 0, 0)" stroke="rgb(204, 204, 204)" stroke-width="1px"></line><line x1="50" y1="220.50000000000006" x2="45" y2="220.50000000000006" style="visibility: inherit;" fill="rgb(0, 0, 0)" stroke="rgb(204, 204, 204)" stroke-width="1px"></line><line x1="50" y1="189" x2="45" y2="189" style="visibility: inherit;" fill="rgb(0, 0, 0)" stroke="rgb(204, 204, 204)" stroke-width="1px"></line><line x1="50" y1="157.5" x2="45" y2="157.5" style="visibility: inherit;" fill="rgb(0, 0, 0)" stroke="rgb(204, 204, 204)" stroke-width="1px"></line><line x1="50" y1="126.00000000000001" x2="45" y2="126.00000000000001" style="visibility: inherit;" fill="rgb(0, 0, 0)" stroke="rgb(204, 204, 204)" stroke-width="1px"></line><line x1="50" y1="94.5" x2="45" y2="94.5" style="visibility: inherit;" fill="rgb(0, 0, 0)" stroke="rgb(204, 204, 204)" stroke-width="1px"></line><line x1="50" y1="62.999999999999986" x2="45" y2="62.999999999999986" style="visibility: inherit;" fill="rgb(0, 0, 0)" stroke="rgb(204, 204, 204)" stroke-width="1px"></line><line x1="50" y1="31.500000000000014" x2="45" y2="31.500000000000014" style="visibility: inherit;" fill="rgb(0, 0, 0)" stroke="rgb(204, 204, 204)" stroke-width="1px"></line><line x1="50" y1="0" x2="45" y2="0" style="visibility: inherit;" fill="rgb(0, 0, 0)" stroke="rgb(204, 204, 204)" stroke-width="1px"></line></g><g transform="translate(40, 0)"><text x="0" y="346.5" dx="0em" dy="0.3em" style="text-anchor: end; visibility: inherit; font-family: Roboto, sans-serif; font-size: 12px; font-weight: 200;" fill="rgb(50, 49, 63)" stroke="none" stroke-width="1px">0.08</text><text x="0" y="315" dx="0em" dy="0.3em" style="text-anchor: end; visibility: inherit; font-family: Roboto, sans-serif; font-size: 12px; font-weight: 200;" fill="rgb(50, 49, 63)" stroke="none" stroke-width="1px">0.09</text><text x="0" y="283.5" dx="0em" dy="0.3em" style="text-anchor: end; visibility: inherit; font-family: Roboto, sans-serif; font-size: 12px; font-weight: 200;" fill="rgb(50, 49, 63)" stroke="none" stroke-width="1px">0.1</text><text x="0" y="252.00000000000003" dx="0em" dy="0.3em" style="text-anchor: end; visibility: inherit; font-family: Roboto, sans-serif; font-size: 12px; font-weight: 200;" fill="rgb(50, 49, 63)" stroke="none" stroke-width="1px">0.11</text><text x="0" y="220.50000000000006" dx="0em" dy="0.3em" style="text-anchor: end; visibility: inherit; font-family: Roboto, sans-serif; font-size: 12px; font-weight: 200;" fill="rgb(50, 49, 63)" stroke="none" stroke-width="1px">0.12</text><text x="0" y="189" dx="0em" dy="0.3em" style="text-anchor: end; visibility: inherit; font-family: Roboto, sans-serif; font-size: 12px; font-weight: 200;" fill="rgb(50, 49, 63)" stroke="none" stroke-width="1px">0.13</text><text x="0" y="157.5" dx="0em" dy="0.3em" style="text-anchor: end; visibility: inherit; font-family: Roboto, sans-serif; font-size: 12px; font-weight: 200;" fill="rgb(50, 49, 63)" stroke="none" stroke-width="1px">0.14</text><text x="0" y="126.00000000000001" dx="0em" dy="0.3em" style="text-anchor: end; visibility: inherit; font-family: Roboto, sans-serif; font-size: 12px; font-weight: 200;" fill="rgb(50, 49, 63)" stroke="none" stroke-width="1px">0.15</text><text x="0" y="94.5" dx="0em" dy="0.3em" style="text-anchor: end; visibility: inherit; font-family: Roboto, sans-serif; font-size: 12px; font-weight: 200;" fill="rgb(50, 49, 63)" stroke="none" stroke-width="1px">0.16</text><text x="0" y="62.999999999999986" dx="0em" dy="0.3em" style="text-anchor: end; visibility: inherit; font-family: Roboto, sans-serif; font-size: 12px; font-weight: 200;" fill="rgb(50, 49, 63)" stroke="none" stroke-width="1px">0.17</text><text x="0" y="31.500000000000014" dx="0em" dy="0.3em" style="text-anchor: end; visibility: inherit; font-family: Roboto, sans-serif; font-size: 12px; font-weight: 200;" fill="rgb(50, 49, 63)" stroke="none" stroke-width="1px">0.18</text><text x="0" y="0" dx="0em" dy="0.3em" style="text-anchor: end; visibility: hidden; font-family: Roboto, sans-serif; font-size: 12px; font-weight: 200;" fill="rgb(50, 49, 63)" stroke="none" stroke-width="1px">0.19</text></g><line x1="50" y1="0" x2="50" y2="378" fill="rgb(0, 0, 0)" stroke="rgb(204, 204, 204)" stroke-width="1px"></line></g></g><g transform="translate(50, 0)" clip-path="url(#clip_0)"><clipPath id="clip_0"><rect width="940" height="378"></rect></clipPath><g><g><g><line x1="0" y1="0" x2="0" y2="378" fill="rgb(0, 0, 0)" stroke="rgb(60, 60, 60)" stroke-width="1px" opacity="0.25"></line><line x1="78.38333333333333" y1="0" x2="78.38333333333333" y2="378" fill="rgb(0, 0, 0)" stroke="rgb(60, 60, 60)" stroke-width="1px" opacity="0.25"></line><line x1="156.76666666666665" y1="0" x2="156.76666666666665" y2="378" fill="rgb(0, 0, 0)" stroke="rgb(60, 60, 60)" stroke-width="1px" opacity="0.25"></line><line x1="235.15" y1="0" x2="235.15" y2="378" fill="rgb(0, 0, 0)" stroke="rgb(60, 60, 60)" stroke-width="1px" opacity="0.25"></line><line x1="313.5333333333333" y1="0" x2="313.5333333333333" y2="378" fill="rgb(0, 0, 0)" stroke="rgb(60, 60, 60)" stroke-width="1px" opacity="0.25"></line><line x1="391.9166666666667" y1="0" x2="391.9166666666667" y2="378" fill="rgb(0, 0, 0)" stroke="rgb(60, 60, 60)" stroke-width="1px" opacity="0.25"></line><line x1="470.3" y1="0" x2="470.3" y2="378" fill="rgb(0, 0, 0)" stroke="rgb(60, 60, 60)" stroke-width="1px" opacity="0.25"></line><line x1="548.6833333333334" y1="0" x2="548.6833333333334" y2="378" fill="rgb(0, 0, 0)" stroke="rgb(60, 60, 60)" stroke-width="1px" opacity="0.25"></line><line x1="627.0666666666666" y1="0" x2="627.0666666666666" y2="378" fill="rgb(0, 0, 0)" stroke="rgb(60, 60, 60)" stroke-width="1px" opacity="0.25"></line><line x1="705.45" y1="0" x2="705.45" y2="378" fill="rgb(0, 0, 0)" stroke="rgb(60, 60, 60)" stroke-width="1px" opacity="0.25"></line><line x1="783.8333333333334" y1="0" x2="783.8333333333334" y2="378" fill="rgb(0, 0, 0)" stroke="rgb(60, 60, 60)" stroke-width="1px" opacity="0.25"></line><line x1="862.2166666666667" y1="0" x2="862.2166666666667" y2="378" fill="rgb(0, 0, 0)" stroke="rgb(60, 60, 60)" stroke-width="1px" opacity="0.25"></line><line x1="940.6" y1="0" x2="940.6" y2="378" fill="rgb(0, 0, 0)" stroke="rgb(60, 60, 60)" stroke-width="1px" opacity="0.25"></line></g><g><line x1="0" y1="346.5" x2="940.6" y2="346.5" fill="rgb(0, 0, 0)" stroke="rgb(60, 60, 60)" stroke-width="1px" opacity="0.25"></line><line x1="0" y1="315" x2="940.6" y2="315" fill="rgb(0, 0, 0)" stroke="rgb(60, 60, 60)" stroke-width="1px" opacity="0.25"></line><line x1="0" y1="283.5" x2="940.6" y2="283.5" fill="rgb(0, 0, 0)" stroke="rgb(60, 60, 60)" stroke-width="1px" opacity="0.25"></line><line x1="0" y1="252.00000000000003" x2="940.6" y2="252.00000000000003" fill="rgb(0, 0, 0)" stroke="rgb(60, 60, 60)" stroke-width="1px" opacity="0.25"></line><line x1="0" y1="220.50000000000006" x2="940.6" y2="220.50000000000006" fill="rgb(0, 0, 0)" stroke="rgb(60, 60, 60)" stroke-width="1px" opacity="0.25"></line><line x1="0" y1="189" x2="940.6" y2="189" fill="rgb(0, 0, 0)" stroke="rgb(60, 60, 60)" stroke-width="1px" opacity="0.25"></line><line x1="0" y1="157.5" x2="940.6" y2="157.5" fill="rgb(0, 0, 0)" stroke="rgb(60, 60, 60)" stroke-width="1px" opacity="0.25"></line><line x1="0" y1="126.00000000000001" x2="940.6" y2="126.00000000000001" fill="rgb(0, 0, 0)" stroke="rgb(60, 60, 60)" stroke-width="1px" opacity="0.25"></line><line x1="0" y1="94.5" x2="940.6" y2="94.5" fill="rgb(0, 0, 0)" stroke="rgb(60, 60, 60)" stroke-width="1px" opacity="0.25"></line><line x1="0" y1="62.999999999999986" x2="940.6" y2="62.999999999999986" fill="rgb(0, 0, 0)" stroke="rgb(60, 60, 60)" stroke-width="1px" opacity="0.25"></line><line x1="0" y1="31.500000000000014" x2="940.6" y2="31.500000000000014" fill="rgb(0, 0, 0)" stroke="rgb(60, 60, 60)" stroke-width="1px" opacity="0.25"></line><line x1="0" y1="0" x2="940.6" y2="0" fill="rgb(0, 0, 0)" stroke="rgb(60, 60, 60)" stroke-width="1px" opacity="0.25"></line></g></g></g><g><g><line x1="0" y1="598.5" x2="940.6" y2="598.5" fill="rgb(0, 0, 0)" stroke="rgb(153, 153, 153)" stroke-width="1.5px"></line></g></g><g><g><line x1="78.38333333333333" y1="0" x2="78.38333333333333" y2="378" fill="rgb(0, 0, 0)" stroke="rgb(153, 153, 153)" stroke-width="1.5px"></line></g></g><g><g><g><g><g><path stroke="rgb(0, 119, 187)" stroke-width="2px" d="M125.41333333333334,402.0269132924869L141.09,359.3990952225194L156.76666666666665,273.87171149283256L172.44333333333333,308.158414005508L188.12,235.20335732601944L203.79666666666668,231.48713517026326L219.47333333333333,242.96838469767653L235.15,174.0673070743006L250.82666666666668,132.56237007826053L266.50333333333333,185.88109395846845L282.18,134.51822335945718L297.8566666666667,102.1059774364555L313.5333333333333,118.30826130002649L329.21,101.46180075979696L344.88666666666666,132.8201073328886L360.5633333333334,145.4784378044098L376.24,120.68102385156897L391.9166666666667,116.81623909212733L407.59333333333336,118.06045147695725L423.27000000000004,161.8869985329539L438.94666666666666,135.7094588610863L454.62333333333333,187.05204543933814L470.3,189.35358929718302L485.97666666666674,181.98900608711656L501.65333333333336,182.10496994519667L517.33,172.78123688877568L533.0066666666667,154.2306876667748L548.6833333333334,156.70448108873353L564.36,138.43039676164614L580.0366666666667,171.51736318284046L595.7133333333334,141.48780082980133L611.39,155.212988966134L627.0666666666666,132.67690102067343L642.7433333333333,154.1372408633748L658.42,172.84378926340833L674.0966666666667,140.34020908018843L689.7733333333333,194.3650464621604L705.45,154.22468753262078L721.1266666666668,144.06848624219737L736.8033333333334,147.69198762801747L752.48,187.11545257314037L768.1566666666666,217.57158141180946L783.8333333333334,172.35940041763777L799.51,186.69224781819094L815.1866666666667,159.66212604597854L830.8633333333333,175.834806014253L846.5400000000001,189.74921526869647" style="fill: none;" fill="none"></path></g><g><path stroke="rgb(255, 112, 67)" stroke-width="2px" d="M78.38333333333333,299.292483240366L94.06,125.1236306168139L109.73666666666666,14.718378501279034L125.41333333333334,31.588747272267838L141.09,57.087371228594996L156.76666666666665,63.32991760918735L172.44333333333333,63.67792167244812L188.12,85.34476662863369L203.79666666666668,81.94172196504958L219.47333333333333,76.217011876841L235.15,92.99007943295997L250.82666666666668,97.05316960615785L266.50333333333333,109.9801646704029L282.18,119.14302316390274L297.8566666666667,122.65229365946493L313.5333333333333,147.1417205891973L329.21,159.70603842681038L344.88666666666666,169.0847458023715L360.5633333333334,192.84194930334323L376.24,206.52878393651184L391.9166666666667,209.4998891580421L407.59333333333336,217.0896875466303L423.27000000000004,220.65203770983658L438.94666666666666,209.90043575646794L454.62333333333333,223.13706316174984L470.3,234.90320836877308L485.97666666666674,240.40488373688285L501.65333333333336,246.96352408036267L517.33,250.75707295065843L533.0066666666667,250.05882940666584L548.6833333333334,249.7815161037765L564.36,247.20730623907622L580.0366666666667,262.6591847485229L595.7133333333334,261.8741073410838L611.39,259.70342147201757L627.0666666666666,256.2764630372537L642.7433333333333,248.5548201354436L658.42,257.9438666484953L674.0966666666667,259.89474090666306L689.7733333333333,254.26669842284048L705.45,255.70552575871193L721.1266666666668,243.39660499269402L736.8033333333334,238.98562385178178L752.48,242.995960102398L768.1566666666666,240.728151128008L783.8333333333334,232.42726601031157L799.51,229.57129124312877L815.1866666666667,222.47550396610825L830.8633333333333,232.80661337085294L846.5400000000001,227.81598545015427" style="fill: none;" fill="none"></path></g></g></g></g><g opacity="0.2"><g><g><g><path stroke="rgb(0, 119, 187)" stroke-width="2px" d="M109.73666666666666,428.4485888332129L125.41333333333334,370.95502285659313L141.09,303.74421595036983L156.76666666666665,155.55654993653297L172.44333333333333,357.188947185874L188.12,128.8341843187809L203.79666666666668,226.0064293295145L219.47333333333333,260.0167021751404L235.15,71.34061834216119L250.82666666666668,70.53083261847499L266.50333333333333,265.6850848942995L282.18,57.57454267144203L297.8566666666667,53.525707930326476L313.5333333333333,142.60025998950005L329.21,76.199238806963L344.88666666666666,179.84960532188416L360.5633333333334,164.46400514245033L376.24,83.48716950416568L391.9166666666667,111.01927390694618L407.59333333333336,119.92672911286354L423.27000000000004,227.62595383822918L438.94666666666666,96.44345945119859L454.62333333333333,264.06556038558483L470.3,192.80589526891708L485.97666666666674,170.9421501159668L501.65333333333336,182.27891555428505L517.33,158.7956458926201L533.0066666666667,126.40487408638002L548.6833333333334,160.41517040133476L564.36,111.01927390694618L580.0366666666667,221.14780886471274L595.7133333333334,96.44345945119859L611.39,175.8007705807686L627.0666666666666,98.87276968359947L642.7433333333333,186.32775029540065L658.42,200.903611689806L674.0966666666667,91.58483898639679L689.7733333333333,275.4023023545742L705.45,94.01414921879771L721.1266666666668,128.8341843187809L736.8033333333334,153.12723970413208L752.48,246.25064997375014L768.1566666666666,263.2557746618986L783.8333333333334,104.54112893342975L799.51,208.1915189176798L815.1866666666667,119.11694338917734L830.8633333333333,200.09382596611977L846.5400000000001,210.6208291500807" style="fill: none;" fill="none"></path></g><g><path stroke="rgb(255, 112, 67)" stroke-width="2px" d="M78.38333333333333,299.292483240366L94.06,20.622319042682648L109.73666666666666,-91.27066352963445L125.41333333333334,51.42830094695094L141.09,90.37837466597558L156.76666666666665,71.96560657024386L172.44333333333333,64.1755730509758L188.12,116.9352345764637L203.79666666666668,76.92289209365848L219.47333333333333,67.71648457646373L235.15,117.99755027890205L250.82666666666668,103.12569370865822L266.50333333333333,129.32844838500023L282.18,132.86935991048816L297.8566666666667,127.91207438707355L313.5333333333333,183.85858914256096L329.21,178.54719838500023L344.88666666666666,183.15042561292648L360.5633333333334,228.47413538396358L376.24,227.05778485536578L391.9166666666667,213.95638404786587L407.59333333333336,228.47413538396358L423.27000000000004,225.99549262225628L438.94666666666666,193.77316018939018L454.62333333333333,242.99191018939018L470.3,252.55237600207332L485.97666666666674,248.65738271176815L501.65333333333336,256.80147452652454L517.33,256.4473927617073L533.0066666666667,249.0114644765854L548.6833333333334,249.36554624140263L564.36,243.34599195420742L580.0366666666667,285.83700066804886L595.7133333333334,260.69649128615856L611.39,256.4473927617073L627.0666666666666,251.13602547347546L642.7433333333333,236.972355902195L658.42,272.0274363309145L674.0966666666667,262.82105228304863L689.7733333333333,245.82463471591473L705.45,257.863766759634L721.1266666666668,224.9332238584757L736.8033333333334,232.36915214359763L752.48,249.0114644765854L768.1566666666666,237.32643766701224L783.8333333333334,219.9759383350611L799.51,225.2873290926218L815.1866666666667,211.8318230509758L830.8633333333333,248.30327747762203L846.5400000000001,220.3300435692072" style="fill: none;" fill="none"></path></g></g></g></g></g></g><g transform="translate(50, 378)" clip-path="url(#clip_1)"><clipPath id="clip_1"><rect width="940" height="22"></rect></clipPath><g><g><line x1="0" y1="0" x2="0" y2="5" style="visibility: inherit;" fill="rgb(0, 0, 0)" stroke="rgb(204, 204, 204)" stroke-width="1px"></line><line x1="78.38333333333333" y1="0" x2="78.38333333333333" y2="5" style="visibility: inherit;" fill="rgb(0, 0, 0)" stroke="rgb(204, 204, 204)" stroke-width="1px"></line><line x1="156.76666666666665" y1="0" x2="156.76666666666665" y2="5" style="visibility: inherit;" fill="rgb(0, 0, 0)" stroke="rgb(204, 204, 204)" stroke-width="1px"></line><line x1="235.15" y1="0" x2="235.15" y2="5" style="visibility: inherit;" fill="rgb(0, 0, 0)" stroke="rgb(204, 204, 204)" stroke-width="1px"></line><line x1="313.5333333333333" y1="0" x2="313.5333333333333" y2="5" style="visibility: inherit;" fill="rgb(0, 0, 0)" stroke="rgb(204, 204, 204)" stroke-width="1px"></line><line x1="391.9166666666667" y1="0" x2="391.9166666666667" y2="5" style="visibility: inherit;" fill="rgb(0, 0, 0)" stroke="rgb(204, 204, 204)" stroke-width="1px"></line><line x1="470.3" y1="0" x2="470.3" y2="5" style="visibility: inherit;" fill="rgb(0, 0, 0)" stroke="rgb(204, 204, 204)" stroke-width="1px"></line><line x1="548.6833333333334" y1="0" x2="548.6833333333334" y2="5" style="visibility: inherit;" fill="rgb(0, 0, 0)" stroke="rgb(204, 204, 204)" stroke-width="1px"></line><line x1="627.0666666666666" y1="0" x2="627.0666666666666" y2="5" style="visibility: inherit;" fill="rgb(0, 0, 0)" stroke="rgb(204, 204, 204)" stroke-width="1px"></line><line x1="705.45" y1="0" x2="705.45" y2="5" style="visibility: inherit;" fill="rgb(0, 0, 0)" stroke="rgb(204, 204, 204)" stroke-width="1px"></line><line x1="783.8333333333334" y1="0" x2="783.8333333333334" y2="5" style="visibility: inherit;" fill="rgb(0, 0, 0)" stroke="rgb(204, 204, 204)" stroke-width="1px"></line><line x1="862.2166666666667" y1="0" x2="862.2166666666667" y2="5" style="visibility: inherit;" fill="rgb(0, 0, 0)" stroke="rgb(204, 204, 204)" stroke-width="1px"></line><line x1="940.6" y1="0" x2="940.6" y2="5" style="visibility: inherit;" fill="rgb(0, 0, 0)" stroke="rgb(204, 204, 204)" stroke-width="1px"></line></g><g transform="translate(0, 8)"><text x="0" y="0" dx="0em" dy="0.95em" style="text-anchor: middle; visibility: hidden; font-family: Roboto, sans-serif; font-size: 12px; font-weight: 200;" fill="rgb(50, 49, 63)" stroke="none" stroke-width="1px">-5</text><text x="78.38333333333333" y="0" dx="0em" dy="0.95em" style="text-anchor: middle; visibility: inherit; font-family: Roboto, sans-serif; font-size: 12px; font-weight: 200;" fill="rgb(50, 49, 63)" stroke="none" stroke-width="1px">0</text><text x="156.76666666666665" y="0" dx="0em" dy="0.95em" style="text-anchor: middle; visibility: inherit; font-family: Roboto, sans-serif; font-size: 12px; font-weight: 200;" fill="rgb(50, 49, 63)" stroke="none" stroke-width="1px">5</text><text x="235.15" y="0" dx="0em" dy="0.95em" style="text-anchor: middle; visibility: inherit; font-family: Roboto, sans-serif; font-size: 12px; font-weight: 200;" fill="rgb(50, 49, 63)" stroke="none" stroke-width="1px">10</text><text x="313.5333333333333" y="0" dx="0em" dy="0.95em" style="text-anchor: middle; visibility: inherit; font-family: Roboto, sans-serif; font-size: 12px; font-weight: 200;" fill="rgb(50, 49, 63)" stroke="none" stroke-width="1px">15</text><text x="391.9166666666667" y="0" dx="0em" dy="0.95em" style="text-anchor: middle; visibility: inherit; font-family: Roboto, sans-serif; font-size: 12px; font-weight: 200;" fill="rgb(50, 49, 63)" stroke="none" stroke-width="1px">20</text><text x="470.3" y="0" dx="0em" dy="0.95em" style="text-anchor: middle; visibility: inherit; font-family: Roboto, sans-serif; font-size: 12px; font-weight: 200;" fill="rgb(50, 49, 63)" stroke="none" stroke-width="1px">25</text><text x="548.6833333333334" y="0" dx="0em" dy="0.95em" style="text-anchor: middle; visibility: inherit; font-family: Roboto, sans-serif; font-size: 12px; font-weight: 200;" fill="rgb(50, 49, 63)" stroke="none" stroke-width="1px">30</text><text x="627.0666666666666" y="0" dx="0em" dy="0.95em" style="text-anchor: middle; visibility: inherit; font-family: Roboto, sans-serif; font-size: 12px; font-weight: 200;" fill="rgb(50, 49, 63)" stroke="none" stroke-width="1px">35</text><text x="705.45" y="0" dx="0em" dy="0.95em" style="text-anchor: middle; visibility: inherit; font-family: Roboto, sans-serif; font-size: 12px; font-weight: 200;" fill="rgb(50, 49, 63)" stroke="none" stroke-width="1px">40</text><text x="783.8333333333334" y="0" dx="0em" dy="0.95em" style="text-anchor: middle; visibility: inherit; font-family: Roboto, sans-serif; font-size: 12px; font-weight: 200;" fill="rgb(50, 49, 63)" stroke="none" stroke-width="1px">45</text><text x="862.2166666666667" y="0" dx="0em" dy="0.95em" style="text-anchor: middle; visibility: inherit; font-family: Roboto, sans-serif; font-size: 12px; font-weight: 200;" fill="rgb(50, 49, 63)" stroke="none" stroke-width="1px">50</text><text x="940.6" y="0" dx="0em" dy="0.95em" style="text-anchor: middle; visibility: hidden; font-family: Roboto, sans-serif; font-size: 12px; font-weight: 200;" fill="rgb(50, 49, 63)" stroke="none" stroke-width="1px">55</text></g><line x1="0" y1="0" x2="940.6" y2="0" fill="rgb(0, 0, 0)" stroke="rgb(204, 204, 204)" stroke-width="1px"></line></g></g></g></g></svg>